<svg xmlns="http://www.w3.org/2000/svg" width="247" height="43" viewBox="0 0 247 43">
  <g fill="none" fill-rule="evenodd">
    <path fill="#BBBECC" d="M203.451155,29.3595378 C203.451155,28.102432 203.81543,27.1322889 204.543989,26.4490792 C205.272549,25.7658696 206.331953,25.4242699 207.722232,25.4242699 C209.045671,25.4242699 210.061629,25.7658696 210.770137,26.4490792 C211.478644,27.1322889 211.832893,28.102432 211.832893,29.3595378 C211.832893,30.5893151 211.468619,31.5492103 210.740059,32.239252 C210.011499,32.9292937 209.005567,33.2743094 207.722232,33.2743094 C206.398793,33.2743094 205.356099,32.9327097 204.594119,32.2495001 C203.83214,31.5662905 203.451155,30.6029793 203.451155,29.3595378 Z M221.929275,32.7619048 L214.088941,32.7619048 L214.088941,9.53972517 L221.929275,9.53972517 L221.929275,32.7619048 Z M213.888421,3.7598005 C213.888421,2.55735153 214.215934,1.66236033 214.870969,1.07480004 C215.526005,0.487239746 216.582066,0.193464007 218.039186,0.193464007 C219.496305,0.193464007 220.559051,0.49407174 221.227454,1.09529622 C221.895858,1.69652071 222.230055,2.58467992 222.230055,3.7598005 C222.230055,6.11004167 220.833112,7.28514462 218.039186,7.28514462 C215.271995,7.28514462 213.888421,6.11004167 213.888421,3.7598005 Z M246.844087,21.0995745 C246.844087,24.8982201 245.844839,27.8598895 243.846313,29.9846715 C241.847786,32.1094534 239.05056,33.1718285 235.454549,33.1718285 C232.005587,33.1718285 229.261832,32.0855415 227.223201,29.9129348 C225.184571,27.7403281 224.165271,24.8025708 224.165271,21.0995745 C224.165271,17.3145931 225.164519,14.3734197 227.163045,12.2759661 C229.161572,10.1785125 231.965482,9.12980143 235.574861,9.12980143 C237.807329,9.12980143 239.779089,9.614873 241.490202,10.5850307 C243.201315,11.5551884 244.521392,12.9454991 245.450473,14.7560047 C246.379554,16.5665102 246.844087,18.6810124 246.844087,21.0995745 Z M232.125916,21.0995745 C232.125916,23.0945467 232.38659,24.6146653 232.907944,25.6599761 C233.429299,26.7052868 234.304895,27.2279343 235.534757,27.2279343 C236.751251,27.2279343 237.610137,26.7052868 238.111439,25.6599761 C238.612742,24.6146653 238.86339,23.0945467 238.86339,21.0995745 C238.86339,19.1182665 238.6094,17.6220599 238.101413,16.6109096 C237.593427,15.5997593 236.724515,15.0941918 235.494653,15.0941918 C234.291527,15.0941918 233.429299,15.5963433 232.907944,16.6006615 C232.38659,17.6049797 232.125916,19.1046023 232.125916,21.0995745 Z"/>
    <path fill="#828AA5" d="M13.738166,33.1718285 C12.588512,33.1718285 11.5591861,32.9771167 10.6501574,32.5876872 C9.74112864,32.1982577 8.83879748,31.4979783 7.94313682,30.486828 L7.58220074,30.486828 C7.822826,32.112867 7.94313682,33.1240021 7.94313682,33.5202637 L7.94313682,42.8460286 L0.102803202,42.8460286 L0.102803202,9.53972517 L6.47934052,9.53972517 L7.58220074,12.4911761 L7.94313682,12.4911761 C9.4002564,10.2502484 11.4121207,9.12980143 13.9787901,9.12980143 C16.4919871,9.12980143 18.4637478,10.1955925 19.8941313,12.3272066 C21.3245147,14.4588206 22.0396957,17.382914 22.0396957,21.0995745 C22.0396957,24.8435633 21.294437,27.7915687 19.8038973,29.9436791 C18.3133575,32.0957895 16.2914673,33.1718285 13.738166,33.1718285 Z M11.1113535,15.4221308 C9.96169948,15.4221308 9.15628537,15.8422984 8.69508697,16.6826463 C8.23388857,17.5229941 7.98324103,18.769833 7.94313682,20.4232003 L7.94313682,21.0585821 C7.94313682,23.0535543 8.20381026,24.495105 8.72516498,25.3832775 C9.24651969,26.2714501 10.0686436,26.7155297 11.1915615,26.7155297 C12.1941667,26.7155297 12.9227156,26.2748661 13.3772299,25.3935256 C13.8317443,24.5121852 14.0589981,23.0535545 14.0589981,21.0175898 C14.0589981,19.0226176 13.8317443,17.5913149 13.3772299,16.7236386 C12.9227156,15.8559624 12.167431,15.4221308 11.1113535,15.4221308 Z M38.6333571,32.7619048 L37.1294568,29.6874767 L36.9690408,29.6874767 C35.9129633,31.0265676 34.8368498,31.9420548 33.7406681,32.4339658 C32.6444864,32.9258767 31.2274923,33.1718285 29.4896432,33.1718285 C27.3507521,33.1718285 25.6664006,32.5159571 24.4365382,31.2041946 C23.2066758,29.8924321 22.5917538,28.0477937 22.5917538,25.6702241 C22.5917538,23.1970052 23.4339295,21.3557829 25.1183063,20.1465018 C26.8026831,18.9372207 29.2423192,18.2574374 32.4372878,18.1071312 L36.2271166,17.9841541 L36.2271166,17.6562151 C36.2271166,15.7432281 35.3047336,14.786749 33.45994,14.786749 C31.8022994,14.786749 29.69686,15.3606365 27.1435587,16.5084287 L24.8776823,11.2204125 C27.52456,9.82666481 30.8665273,9.12980143 34.9036843,9.12980143 C37.8179235,9.12980143 40.0737514,9.86765678 41.6712357,11.3433896 C43.26872,12.8191224 44.0674502,14.8823846 44.0674502,17.533238 L44.0674502,32.7619048 L38.6333571,32.7619048 Z M32.8182759,27.514881 C33.7674088,27.514881 34.5795069,27.2074412 35.2545944,26.5925525 C35.9296819,25.9776639 36.2672206,25.1783206 36.2672206,24.1944987 L36.2672206,22.3908343 L34.4625402,22.472819 C31.8825028,22.5684684 30.5925034,23.5386115 30.5925034,25.3832775 C30.5925034,26.8043536 31.3344202,27.514881 32.8182759,27.514881 Z M68.1405091,9.53972517 L68.1405091,13.4135045 L65.0324485,14.5817871 C65.4602267,15.3743103 65.6741126,16.2966295 65.6741126,17.3487723 C65.6741126,19.8493196 64.815227,21.7896059 63.0974301,23.1696894 C61.3796332,24.5497728 58.8163443,25.2398042 55.4074865,25.2398042 C54.5652981,25.2398042 53.8969047,25.1851483 53.4022861,25.0758347 C53.2151331,25.4311037 53.121558,25.7658714 53.121558,26.0801479 C53.121558,26.4764095 53.435703,26.7804332 54.0640022,26.9922282 C54.6923015,27.2040232 55.5144255,27.3099191 56.5303988,27.3099191 L60.3001755,27.3099191 C65.39341,27.3099191 67.9399891,29.5029891 67.9399891,33.889195 C67.9399891,36.7176829 66.7602747,38.917585 64.4008104,40.4889672 C62.0413461,42.0603493 58.7294565,42.8460286 54.4650423,42.8460286 C51.2433376,42.8460286 48.7602559,42.2960531 47.0157228,41.1960856 C45.2711897,40.0961181 44.3989363,38.5145115 44.3989363,36.4512184 C44.3989363,33.6773872 46.0832878,31.8874048 49.4520413,31.0812174 C48.7569017,30.7806052 48.1520056,30.2955336 47.6373349,29.6259882 C47.1226642,28.9564427 46.8653328,28.2937393 46.8653328,27.6378581 C46.8653328,26.9136559 47.0591669,26.2748644 47.4468409,25.7214646 C47.8345149,25.1680648 48.643271,24.5087774 49.8731334,23.7435826 C48.6967433,23.2106791 47.7710183,22.3771758 47.0959308,21.2430478 C46.4208433,20.1089198 46.0833046,18.728857 46.0833046,17.1028181 C46.0833046,14.5749424 46.9254804,12.6141601 48.6098571,11.2204125 C50.2942339,9.82666481 52.7004503,9.12980143 55.8285786,9.12980143 C56.2429888,9.12980143 56.9581698,9.17762539 57.974143,9.27327474 C58.9901163,9.36892409 59.738717,9.45774001 60.2199675,9.53972517 L68.1405091,9.53972517 Z M51.0160976,35.6518671 C51.0160976,36.3077484 51.3636622,36.8372279 52.0588018,37.2403216 C52.7539414,37.6434153 53.6830083,37.8449591 54.8460304,37.8449591 C56.7442963,37.8449591 58.2648914,37.6024233 59.4078613,37.1173444 C60.5508313,36.6322656 61.1223077,36.0071382 61.1223077,35.2419434 C61.1223077,34.6270547 60.7747431,34.1932231 60.0796035,33.9404355 C59.3844639,33.6876479 58.3885576,33.561256 57.0918549,33.561256 L54.0238982,33.561256 C53.1817099,33.561256 52.4698708,33.7627999 51.8883598,34.1658936 C51.3068488,34.5689872 51.0160976,35.0643068 51.0160976,35.6518671 Z M53.4824941,17.1438105 C53.4824941,19.52138 54.2912502,20.7101469 55.9087866,20.7101469 C56.6573985,20.7101469 57.2355589,20.4163712 57.643285,19.8288109 C58.0510111,19.2412506 58.2548711,18.3599234 58.2548711,17.1848028 C58.2548711,14.7799049 57.4728508,13.577474 55.9087866,13.577474 C54.2912502,13.577474 53.4824941,14.7662409 53.4824941,17.1438105 Z M79.8615335,33.1718285 C76.0783698,33.1718285 73.1407806,32.1436134 71.0486777,30.0871524 C68.9565748,28.0306914 67.9105391,25.103182 67.9105391,21.3045364 C67.9105391,17.382913 68.8797096,14.3734197 70.8180797,12.2759661 C72.7564497,10.1785125 75.5235986,9.12980143 79.1196094,9.12980143 C82.5418352,9.12980143 85.1853313,10.0418726 87.050177,11.8660424 C88.9150227,13.6902121 89.8474316,16.3171138 89.8474316,19.7468262 L89.8474316,23.3131627 L75.8310807,23.3131627 C75.884553,24.611261 76.3490864,25.6292281 77.224695,26.3670945 C78.1003035,27.1049609 79.2933859,27.4738886 80.8039777,27.4738886 C82.1808889,27.4738886 83.4474945,27.3406647 84.6038325,27.0742129 C85.7601705,26.8077612 87.0134082,26.3534336 88.3635833,25.7112165 L88.3635833,31.470645 C87.1337209,32.1128621 85.8637733,32.5569417 84.5537025,32.8028971 C83.2436317,33.0488526 81.679591,33.1718285 79.8615335,33.1718285 Z M79.4003374,14.5817871 C78.4779406,14.5817871 77.7059462,14.8789788 77.0843309,15.4733712 C76.4627157,16.0677636 76.0984413,17.0003308 75.9914967,18.2711007 L82.7289701,18.2711007 C82.702234,17.1506369 82.391431,16.2556457 81.7965519,15.5861003 C81.2016728,14.9165548 80.4029426,14.5817871 79.4003374,14.5817871 Z M109.128062,25.6292318 C109.128062,28.1161149 108.299254,29.9949132 106.641613,31.2656831 C104.983972,32.5364531 102.604492,33.1718285 99.5030995,33.1718285 C97.8187228,33.1718285 96.3549411,33.0795966 95.1117106,32.89513 C93.8684802,32.7106634 92.5985326,32.3724797 91.3018298,31.8805687 L91.3018298,25.4652623 C92.5183242,26.01183 93.8517691,26.4627416 95.3022047,26.8180106 C96.7526402,27.1732796 98.0459815,27.3509115 99.1822675,27.3509115 C100.880012,27.3509115 101.728872,26.9546558 101.728872,26.1621326 C101.728872,25.7522068 101.491592,25.3866952 101.017026,25.0655866 C100.542459,24.7444781 99.1622269,24.1193507 96.876287,23.1901855 C94.7908681,22.3156772 93.3337704,21.3216221 92.5049501,20.2079904 C91.6761298,19.0943587 91.2617258,17.6835519 91.2617258,15.9755278 C91.2617258,13.8165853 92.0771658,12.1359148 93.7080703,10.9334659 C95.3389748,9.7310169 97.6449322,9.12980143 100.626012,9.12980143 C102.123236,9.12980143 103.530204,9.29718528 104.846959,9.63195801 C106.163713,9.96673073 107.530578,10.4552183 108.947593,11.0974354 L106.822081,16.2624744 C105.779372,15.7842277 104.676522,15.377724 103.5135,15.0429513 C102.350478,14.7081786 101.40136,14.5407947 100.666116,14.5407947 C99.3827811,14.5407947 98.7411234,14.8618985 98.7411234,15.5041155 C98.7411234,15.9003771 98.9650352,16.2385608 99.4128655,16.5186768 C99.8606958,16.7987927 101.154037,17.3692642 103.292928,18.2301084 C104.883729,18.8996538 106.070127,19.5555252 106.852159,20.1977423 C107.634191,20.8399593 108.209009,21.5948947 108.576631,22.4625709 C108.944253,23.3302472 109.128062,24.3857902 109.128062,25.6292318 Z M124.418343,33.1718285 C123.268689,33.1718285 122.239363,32.9771167 121.330334,32.5876872 C120.421305,32.1982577 119.518974,31.4979783 118.623313,30.486828 L118.262377,30.486828 C118.503003,32.112867 118.623313,33.1240021 118.623313,33.5202637 L118.623313,42.8460286 L110.78298,42.8460286 L110.78298,9.53972517 L117.159517,9.53972517 L118.262377,12.4911761 L118.623313,12.4911761 C120.080433,10.2502484 122.092297,9.12980143 124.658967,9.12980143 C127.172164,9.12980143 129.143924,10.1955925 130.574308,12.3272066 C132.004691,14.4588206 132.719872,17.382914 132.719872,21.0995745 C132.719872,24.8435633 131.974614,27.7915687 130.484074,29.9436791 C128.993534,32.0957895 126.971644,33.1718285 124.418343,33.1718285 Z M121.79153,15.4221308 C120.641876,15.4221308 119.836462,15.8422984 119.375264,16.6826463 C118.914065,17.5229941 118.663418,18.769833 118.623313,20.4232003 L118.623313,21.0585821 C118.623313,23.0535543 118.883987,24.495105 119.405342,25.3832775 C119.926696,26.2714501 120.74882,26.7155297 121.871738,26.7155297 C122.874343,26.7155297 123.602892,26.2748661 124.057407,25.3935256 C124.511921,24.5121852 124.739175,23.0535545 124.739175,21.0175898 C124.739175,19.0226176 124.511921,17.5913149 124.057407,16.7236386 C123.602892,15.8559624 122.847608,15.4221308 121.79153,15.4221308 Z M145.463549,33.1718285 C141.680385,33.1718285 138.742796,32.1436134 136.650693,30.0871524 C134.55859,28.0306914 133.512554,25.103182 133.512554,21.3045364 C133.512554,17.382913 134.481725,14.3734197 136.420095,12.2759661 C138.358465,10.1785125 141.125614,9.12980143 144.721625,9.12980143 C148.143851,9.12980143 150.787347,10.0418726 152.652192,11.8660424 C154.517038,13.6902121 155.449447,16.3171138 155.449447,19.7468262 L155.449447,23.3131627 L141.433096,23.3131627 C141.486568,24.611261 141.951102,25.6292281 142.82671,26.3670945 C143.702319,27.1049609 144.895401,27.4738886 146.405993,27.4738886 C147.782904,27.4738886 149.04951,27.3406647 150.205848,27.0742129 C151.362186,26.8077612 152.615424,26.3534336 153.965599,25.7112165 L153.965599,31.470645 C152.735736,32.1128621 151.465789,32.5569417 150.155718,32.8028971 C148.845647,33.0488526 147.281606,33.1718285 145.463549,33.1718285 Z M145.002353,14.5817871 C144.079956,14.5817871 143.307962,14.8789788 142.686346,15.4733712 C142.064731,16.0677636 141.700457,17.0003308 141.593512,18.2711007 L148.330986,18.2711007 C148.304249,17.1506369 147.993446,16.2556457 147.398567,15.5861003 C146.803688,14.9165548 146.004958,14.5817871 145.002353,14.5817871 Z M168.15302,33.1718285 C164.369856,33.1718285 161.432267,32.1436134 159.340164,30.0871524 C157.248061,28.0306914 156.202025,25.103182 156.202025,21.3045364 C156.202025,17.382913 157.171196,14.3734197 159.109566,12.2759661 C161.047936,10.1785125 163.815085,9.12980143 167.411095,9.12980143 C170.833321,9.12980143 173.476817,10.0418726 175.341663,11.8660424 C177.206509,13.6902121 178.138918,16.3171138 178.138918,19.7468262 L178.138918,23.3131627 L164.122567,23.3131627 C164.176039,24.611261 164.640572,25.6292281 165.516181,26.3670945 C166.39179,27.1049609 167.584872,27.4738886 169.095464,27.4738886 C170.472375,27.4738886 171.738981,27.3406647 172.895319,27.0742129 C174.051657,26.8077612 175.304894,26.3534336 176.655069,25.7112165 L176.655069,31.470645 C175.425207,32.1128621 174.155259,32.5569417 172.845189,32.8028971 C171.535118,33.0488526 169.971077,33.1718285 168.15302,33.1718285 Z M167.691823,14.5817871 C166.769427,14.5817871 165.997432,14.8789788 165.375817,15.4733712 C164.754202,16.0677636 164.389927,17.0003308 164.282983,18.2711007 L171.020456,18.2711007 C170.99372,17.1506369 170.682917,16.2556457 170.088038,15.5861003 C169.493159,14.9165548 168.694429,14.5817871 167.691823,14.5817871 Z M186.932349,33.1718285 C185.314813,33.1718285 183.901161,32.7004209 182.691351,31.7575916 C181.48154,30.8147623 180.545789,29.4278675 179.88407,27.5968657 C179.22235,25.7658639 178.891496,23.6274498 178.891496,21.1815592 C178.891496,17.410242 179.633412,14.4588206 181.117268,12.3272066 C182.601124,10.1955925 184.639724,9.12980143 187.233129,9.12980143 C188.503096,9.12980143 189.615971,9.3894172 190.571788,9.90865653 C191.527605,10.4278959 192.399859,11.3023911 193.188575,12.5321684 L193.348991,12.5321684 C193.094997,10.7148308 192.968003,8.8975204 192.968003,7.08018276 L192.968003,0.86983817 L200.868492,0.86983817 L200.868492,32.7619048 L194.953151,32.7619048 L193.268783,29.8309501 L192.968003,29.8309501 C191.617828,32.0582135 189.605963,33.1718285 186.932349,33.1718285 Z M190.14067,26.8385068 C191.397269,26.8385068 192.28289,26.4354191 192.797561,25.6292318 C193.312231,24.8230444 193.589615,23.5796215 193.629719,21.8989258 L193.629719,21.263544 C193.629719,19.2139151 193.34231,17.7552844 192.767483,16.8876081 C192.192656,16.0199319 191.290324,15.5861003 190.060462,15.5861003 C189.031121,15.5861003 188.23239,16.0814198 187.664248,17.0720738 C187.096105,18.0627278 186.812037,19.4735345 186.812037,21.3045364 C186.812037,23.1082098 187.099447,24.4814406 187.674274,25.4242699 C188.249101,26.3670992 189.071224,26.8385068 190.14067,26.8385068 Z"/>
  </g>
</svg>
